<?xml version="1.0" encoding="utf-8"?>
<!-- Generator: Adobe Illustrator 22.0.1, SVG Export Plug-In . SVG Version: 6.00 Build 0)  -->
<svg version="1.1" id="Layer_1" xmlns="http://www.w3.org/2000/svg" xmlns:xlink="http://www.w3.org/1999/xlink" x="0px" y="0px"
	 viewBox="0 0 595.3 841.9" style="enable-background:new 0 0 595.3 841.9;" xml:space="preserve">
<g>
	<defs>
		<path id="SVGID_1_" d="M808.9,421.9c0,282.9-229.3,512-511.9,512s-512.1-229.3-512.1-512c0-282.9,229.3-512,511.9-512
			S808.9,139,808.9,421.9"/>
	</defs>
	<use xlink:href="#SVGID_1_"  style="overflow:visible;fill:#080910;"/>
	<clipPath id="SVGID_2_">
		<use xlink:href="#SVGID_1_"  style="overflow:visible;"/>
	</clipPath>
</g>
<g>
	<defs>
		<polygon id="SVGID_3_" points="38.9,344.2 38.9,405.1 -9.1,405.1 -9.1,344.2 -56.6,269.2 -4.4,269.2 5.3,287.3 15,307 24.7,287.3
			34.4,269.2 86.1,269.2 38.9,344.2 		"/>
	</defs>
	<use xlink:href="#SVGID_3_"  style="overflow:visible;fill:#F77F00;"/>
	<clipPath id="SVGID_4_">
		<use xlink:href="#SVGID_3_"  style="overflow:visible;"/>
	</clipPath>
</g>
<g>
	<defs>
		<path id="SVGID_5_" d="M191.3,285.8c12.2,12.2,18.1,29.4,18.1,51.6s-6,39.2-18.1,51.6c-12.2,12.2-28.9,18.4-50.6,18.4
			c-14.1,0-26.5-2.7-36.9-8.2c-10.4-5.5-18.3-13.5-23.9-23.9c-5.5-10.4-8.4-23-8.4-37.9c0-14.6,2.9-27.2,8.4-37.9
			c5.5-10.4,13.5-18.6,23.9-23.9c10.4-5.5,22.5-8.2,36.9-8.2C162.4,267.2,179.4,273.4,191.3,285.8L191.3,285.8z M125.5,311.5
			c-3.3,5.3-4.9,13.9-4.9,25.9c0,11.7,1.5,20.4,4.9,25.9c3.3,5.3,8.4,8.2,15.2,8.2c7.1,0,12.2-2.7,15.2-8.2
			c3.1-5.3,4.6-13.9,4.6-25.9c0-11.7-1.5-20.4-4.6-25.9c-3.1-5.3-8.2-8.2-15.2-8.2C133.9,303.3,128.8,305.9,125.5,311.5L125.5,311.5
			z"/>
	</defs>
	<use xlink:href="#SVGID_5_"  style="overflow:visible;fill:#F77F00;"/>
	<clipPath id="SVGID_6_">
		<use xlink:href="#SVGID_5_"  style="overflow:visible;"/>
	</clipPath>
</g>
<g>
	<defs>
		<path id="SVGID_7_" d="M350.8,346.7c0,40.3-21.9,60.4-65.6,60.4s-65.6-20.1-65.6-60.4v-77.5h48.2v81c0,6.9,1.5,12,4.4,15.5
			c2.9,3.5,7.3,5.3,13,5.3c5.7,0,10.2-1.8,13-5.3c3.1-3.5,4.4-8.6,4.4-15.5v-81h47.9v77.5H350.8L350.8,346.7z"/>
	</defs>
	<use xlink:href="#SVGID_7_"  style="overflow:visible;fill:#F77F00;"/>
	<clipPath id="SVGID_8_">
		<use xlink:href="#SVGID_7_"  style="overflow:visible;"/>
	</clipPath>
</g>
<g>
	<defs>
		<polygon id="SVGID_9_" points="495.7,405.1 444,405.1 411.6,343.4 404.3,326.8 403.8,326.8 404.7,354.6 404.7,405.1 363,405.1
			363,269.2 414.7,269.2 447.1,331.2 454.4,347.6 454.9,347.6 454,319.7 454,269.2 495.5,269.2 495.5,405.1 495.7,405.1 		"/>
	</defs>
	<use xlink:href="#SVGID_9_"  style="overflow:visible;fill:#F77F00;"/>
	<clipPath id="SVGID_10_">
		<use xlink:href="#SVGID_9_"  style="overflow:visible;"/>
	</clipPath>
</g>
<g>
	<defs>
		<path id="SVGID_11_" d="M576.6,328.5h62.7v76.6h-31.6l-1.5-15.5c-7.1,11.7-19.2,17.5-36.7,17.5c-11.9,0-22.5-2.7-32-8
			c-9.5-5.3-17-13.1-22.5-23.5c-5.5-10.4-8.4-23-8.4-38.1c0-22.1,6.2-39.4,18.6-51.8c12.4-12.4,29.6-18.6,51.7-18.6
			c16.8,0,30.3,2.9,40.2,8.6c9.9,5.8,17.7,15.3,23.2,28.6l-44.6,16.2c-1.8-11.5-7.5-17.3-17-17.3c-8,0-13.7,2.7-17.5,8.2
			c-3.8,5.3-5.5,13.9-5.5,25.9c0,12.6,2,21.7,6,27c4,5.3,10.2,8.2,18.8,8.2c6,0,10.8-1.1,14.4-3.5c3.5-2.4,5.3-6,5.3-10.6v-0.2
			h-22.8v-29.7H576.6L576.6,328.5z"/>
	</defs>
	<use xlink:href="#SVGID_11_"  style="overflow:visible;fill:#F77F00;"/>
	<clipPath id="SVGID_12_">
		<use xlink:href="#SVGID_11_"  style="overflow:visible;"/>
	</clipPath>
</g>
<g>
	<defs>
		<path id="SVGID_13_" d="M-63.7,569.2c-14.1,0-26.5-2.7-36.9-8.2c-10.4-5.5-18.3-13.5-23.9-23.9s-8.4-23-8.4-37.9
			c0-14.6,2.9-27.2,8.4-37.9c5.5-10.4,13.5-18.6,23.9-23.9c10.4-5.5,22.5-8.2,36.9-8.2c15.9,0,29.4,3.3,40.7,10.2
			c11.3,6.9,18.1,17,21,31l-41.1,16.2c-1.1-8.4-3.1-13.9-6-16.8c-2.9-2.9-7.3-4.4-13.3-4.4c-7.1,0-12.4,2.7-16.1,8.2
			c-3.5,5.5-5.3,14.2-5.3,25.7c0,11.7,1.8,20.1,5.1,25.7c3.3,5.5,8.6,8.2,15.9,8.2c6.4,0,11-1.5,13.9-4.4c2.9-2.9,4.6-7.5,5.5-14.2
			L-1,525.4C-8,554.6-28.8,569.2-63.7,569.2L-63.7,569.2z"/>
	</defs>
	<use xlink:href="#SVGID_13_"  style="overflow:visible;fill:#FFFFFF;"/>
	<clipPath id="SVGID_14_">
		<use xlink:href="#SVGID_13_"  style="overflow:visible;"/>
	</clipPath>
</g>
<g>
	<defs>
		<path id="SVGID_15_" d="M85.9,541.1H49.4L43,567H-4.7l44-135.9h57.4L140.9,567H92L85.9,541.1L85.9,541.1z M79,511.4L68.2,466h-0.7
			l-5.3,23l-5.5,22.1H79V511.4L79,511.4z"/>
	</defs>
	<use xlink:href="#SVGID_15_"  style="overflow:visible;fill:#FFFFFF;"/>
	<clipPath id="SVGID_16_">
		<use xlink:href="#SVGID_15_"  style="overflow:visible;"/>
	</clipPath>
</g>
<g>
	<defs>
		<path id="SVGID_17_" d="M276.5,478.9c0,14.6-4.9,25.9-14.4,33.7c-9.5,7.7-23.9,11.5-42.4,11.5h-24.1v43.2h-47.9V431.3h71.8
			C257.5,431.3,276.5,447.2,276.5,478.9L276.5,478.9z M224.6,488c2.7-2,4-5.3,4-9.7c0-4.4-1.3-7.5-4-9.7c-2.7-2-6.8-3.1-12.8-3.1
			h-16.1v25.5h16.1C217.8,491.1,222,490,224.6,488L224.6,488z"/>
	</defs>
	<use xlink:href="#SVGID_17_"  style="overflow:visible;fill:#FFFFFF;"/>
	<clipPath id="SVGID_18_">
		<use xlink:href="#SVGID_17_"  style="overflow:visible;"/>
	</clipPath>
</g>
<g>
	<defs>
		<rect id="SVGID_19_" x="286.7" y="431.1" width="47.9" height="135.9"/>
	</defs>
	<use xlink:href="#SVGID_19_"  style="overflow:visible;fill:#FFFFFF;"/>
	<clipPath id="SVGID_20_">
		<use xlink:href="#SVGID_19_"  style="overflow:visible;"/>
	</clipPath>
</g>
<g>
	<defs>
		<polygon id="SVGID_21_" points="478.7,466.5 436.3,466.5 436.3,567.2 388.3,567.2 388.3,466.5 345.9,466.5 345.9,431.3
			478.7,431.3 478.7,466.5 		"/>
	</defs>
	<use xlink:href="#SVGID_21_"  style="overflow:visible;fill:#FFFFFF;"/>
	<clipPath id="SVGID_22_">
		<use xlink:href="#SVGID_21_"  style="overflow:visible;"/>
	</clipPath>
</g>
<g>
	<defs>
		<path id="SVGID_23_" d="M547.6,541.1h-36.5l-6.4,25.9H457l44-135.9h57.4L602.6,567h-48.8L547.6,541.1L547.6,541.1z M540.8,511.4
			L529.9,466h-0.7l-5.3,23l-5.5,22.1h22.3V511.4L540.8,511.4z"/>
	</defs>
	<use xlink:href="#SVGID_23_"  style="overflow:visible;fill:#FFFFFF;"/>
	<clipPath id="SVGID_24_">
		<use xlink:href="#SVGID_23_"  style="overflow:visible;"/>
	</clipPath>
</g>
<g>
	<defs>
		<polygon id="SVGID_25_" points="722.1,532 722.1,567.2 612.8,567.2 612.8,431.3 660.7,431.3 660.7,532 722.1,532 		"/>
	</defs>
	<use xlink:href="#SVGID_25_"  style="overflow:visible;fill:#FFFFFF;"/>
	<clipPath id="SVGID_26_">
		<use xlink:href="#SVGID_25_"  style="overflow:visible;"/>
	</clipPath>
</g>
<g>
	<defs>
		<path id="SVGID_27_" d="M692.7,431.3v4.4h-6.4v16.8h-5.7v-16.8h-6.4v-4.4H692.7L692.7,431.3z M704.7,431.3l4.9,12.8l4.6-12.8h7.5
			v21h-5.3v-15.7l-6,15.7h-2l-6-15.7v15.7h-5.3v-21H704.7L704.7,431.3z"/>
	</defs>
	<use xlink:href="#SVGID_27_"  style="overflow:visible;fill:#FFFFFF;"/>
	<clipPath id="SVGID_28_">
		<use xlink:href="#SVGID_27_"  style="overflow:visible;"/>
	</clipPath>
</g>
</svg>
